<?xml version="1.0" encoding="UTF-8"?>
<svg id="Layer_1" data-name="Layer 1" xmlns="http://www.w3.org/2000/svg" viewBox="0 0 297.54 296.11">
  <defs>
    <style>
      .cls-1 {
        fill: #fff;
      }

      .cls-2 {
        fill: #fff;
      }
    </style>
  </defs>
  <path class="cls-1" d="M164.82,126.83c39.84,3.87,77.41-16.64,107.04-41.45,9.59-2.85,10.78,3.56,13.23,10.69,40.76,118.69-20.92,212.18-149.75,198.75-67.61-7.05-147.25-56.14-107.89-133.87,8.55-16.88,21.28-28.47,33.82-42.17,5.58-3.34,12.69,1.71,11.14,8.05-1.59,6.51-20.29,22.58-25.6,30.48-45.43,67.5,22.63,113.29,83.8,122.25,94.4,13.82,161.7-37.26,150.1-136.1-.49-4.18-6.93-38.57-9.37-38.61-32.71,25.97-70.6,40.28-112.99,36.97-8.39-.66-17.46-2.27-15.07-13.04,13.4-16.95,31.1-30.3,33.43-53.57C182.67,15.76,117.85-2.79,77.34,32.87c-3.38,2.97-14.95,15.32-16.08,18.91-4.13,13.08,22.22,24.73,16.59,40.61-4.02,11.36-24.12,13.47-34.26,11.17C27.11,99.83.04,77.36,0,59.34s19.51-11.74,30.3-12.52c5.51-.4,17.13-3.18,21.05-6.95,7.75-7.42,11.85-15.19,21.55-22.45,51.23-38.36,124.85-10.88,118.78,57.78-1.82,20.61-13.02,37.1-26.87,51.62Z"/>
  <path class="cls-1" d="M99.55,46.06c16.57-3.35,19.78,21.22,3.64,22.73-14.46,1.35-16.83-20.07-3.64-22.73Z"/>
  <path class="cls-2" d="M45.8,58.84c.74,3.67,2.34,7.1,4.22,10.3s14.19,16.67,12.8,18.69c-19.01,7.34-40.61-9.8-46.99-26.98,9.9,2.41,20.28.61,29.97-2.01Z"/>
</svg>